<?xml version="1.0" standalone="no"?>
<!DOCTYPE svg PUBLIC "-//W3C//DTD SVG 20010904//EN"
 "http://www.w3.org/TR/2001/REC-SVG-20010904/DTD/svg10.dtd">
<svg version="1.0" xmlns="http://www.w3.org/2000/svg"
 width="144.000000pt" height="144.000000pt" viewBox="0 0 144.000000 144.000000"
 preserveAspectRatio="xMidYMid meet">
<metadata>
Created by potrace 1.14, written by Peter Selinger 2001-2017
</metadata>
<g transform="translate(0.000000,144.000000) scale(0.100000,-0.100000)"
fill="#000000" stroke="none">
<path d="M651 1058 c-42 -12 -116 -61 -124 -83 -4 -9 -19 -15 -39 -15 -41 0
-106 -30 -135 -61 -44 -48 -56 -126 -28 -192 18 -43 87 -95 136 -103 l37 -6 7
-67 c11 -111 -12 -101 221 -101 167 0 206 3 210 14 3 8 9 44 12 81 l7 66 55
19 c99 33 154 121 130 208 -20 77 -101 142 -175 142 -10 0 -37 18 -60 39 -66
61 -167 84 -254 59z m180 -54 c25 -12 53 -34 62 -47 12 -18 28 -26 64 -31 121
-16 189 -129 130 -216 -28 -42 -78 -73 -125 -75 -20 -2 -37 -7 -38 -11 -1 -5
-5 -26 -9 -46 -5 -34 -9 -38 -37 -38 -29 0 -30 1 -23 33 12 54 11 71 -6 75
-17 3 -29 -33 -29 -84 0 -21 -5 -24 -40 -24 l-40 0 0 65 c0 51 -3 65 -15 65
-12 0 -15 -14 -15 -65 l0 -65 -35 0 c-32 0 -35 3 -40 38 -11 61 -16 72 -32 72
-13 0 -15 -9 -9 -55 l6 -55 -30 0 c-28 0 -30 2 -30 39 0 41 -13 57 -41 53 -9
-2 -37 6 -62 17 -57 25 -87 69 -87 129 0 79 56 136 145 149 37 5 55 13 73 35
43 51 119 80 182 71 19 -3 56 -16 81 -29z m74 -524 c0 -13 -28 -15 -177 -18
-174 -2 -178 -2 -178 18 0 20 4 20 178 18 149 -3 177 -5 177 -18z"/>
</g>
</svg>
